# xmcd
#
# Track frame offsets:
#	150
#	12212
#	25920
#	36425
#	49545
#	62705
#	74542
#	91470
#	103512
#	116785
#
# Disc length: 1810 seconds
#
# Revision: 5
# Processed by: cddbd v1.5.1PL0 Copyright (c) Steve Scherf et al.
# Submitted via: audiograbber 1.83.01
#
DISCID=8507100a
DTITLE=Various Artist - The Best of Country Music
DYEAR=1900
DGENRE=Country
TTITLE0=Moe Bandy with Janie Frickie - It's A Cheating Situation
TTITLE1=Johnny Duncan - It Couldn't Have Been Any Better
TTITLE2=Willie Nelson - Blue Eyes Crying In The Rain
TTITLE3=Lynn Anderson - Rose Garden
TTITLE4=Tanya Tucker - Delta Dawn
TTITLE5=Johnny Paycheck - Take This Job and Shove It
TTITLE6=Johnny Cash - Ghost Riders In The Sky
TTITLE7=Tammy Wynette - Stand By Your Man
TTITLE8=Charlie Rich - Behind Closed Doors
TTITLE9=Marty Robbins - El Paso City
EXTD=
EXTT0=Moe Bandy with Janie Frickie\n
EXTT1=Johnny Duncan\n
EXTT2=Willie Nelson\n
EXTT3=Lynn Anderson\n
EXTT4=Tanya Tucker\n
EXTT5=Johnny Paycheck\n
EXTT6=Johnny Cash\n
EXTT7=Tammy Wynette\n
EXTT8=Charlie Rich\n
EXTT9=Marty Robbins\n
PLAYORDER=
